<svg xmlns="http://www.w3.org/2000/svg" viewBox="0 0 1000 1000">
<defs><path id="top" d="M500,500 m-372,0 a372,372 0 1,1 744,0"/><path id="bot" d="M500,500 m372,0 a372,372 0 1,1 -744,0"/></defs>
<circle cx="500" cy="500" r="470" fill="none" stroke="#f2efe6" stroke-width="14"/>
<circle cx="500" cy="500" r="440" fill="none" stroke="#f2efe6" stroke-width="4"/>
<circle cx="500" cy="500" r="292" fill="none" stroke="#f2efe6" stroke-width="8"/>
<text font-family="Georgia, 'Times New Roman', serif" font-size="58" font-weight="900" letter-spacing="6" fill="#f2efe6"><textPath href="#top" startOffset="50%" text-anchor="middle">VERIFIED BY LOOTERSTUDIO®</textPath></text>
<text font-family="Georgia, 'Times New Roman', serif" font-size="58" font-weight="900" letter-spacing="6" fill="#f2efe6"><textPath href="#bot" startOffset="50%" text-anchor="middle">VERIFIED BY LOOTERSTUDIO®</textPath></text>
<g><polygon points="632.2,412.1 605.3,379.5 566.0,395.1 588.7,359.4 561.7,326.8 602.7,337.4 625.3,301.7 627.9,343.9 668.9,354.4 629.6,369.9" fill="#f2efe6"/><polygon points="538.8,381.4 487.6,403.1 492.3,458.6 455.8,416.5 404.6,438.2 433.3,390.5 396.9,348.4 451.1,361.0 479.9,313.3 484.6,368.8" fill="#f2efe6"/><polygon points="475.3,486.7 416.1,529.9 438.8,599.6 379.4,556.6 320.2,599.8 342.7,530.0 283.3,487.0 356.7,486.9 379.2,417.1 402.0,486.8" fill="#f2efe6"/><polygon points="680.0,425.2 685.9,455.6 716.7,459.4 689.5,474.4 695.5,504.8 672.8,483.7 645.7,498.7 658.8,470.6 636.1,449.5 666.9,453.3" fill="#f2efe6"/><polygon points="683.9,581.3 656.8,596.5 662.9,627.0 640.0,605.9 612.9,621.1 625.9,592.9 603.0,571.8 633.9,575.4 646.9,547.2 653.0,577.7" fill="#f2efe6"/><polygon points="561.4,628.3 568.8,655.1 596.5,656.3 573.4,671.6 580.7,698.3 559.1,681.0 535.9,696.3 545.7,670.3 524.0,653.1 551.7,654.3" fill="#f2efe6"/></g>
</svg>